<?xml version="1.0" standalone="no"?><!DOCTYPE svg PUBLIC "-//W3C//DTD SVG 1.1//EN" "http://www.w3.org/Graphics/SVG/1.1/DTD/svg11.dtd"><svg t="1528014983563" class="icon" style="" viewBox="0 0 1046 1024" version="1.1" xmlns="http://www.w3.org/2000/svg" p-id="4360" xmlns:xlink="http://www.w3.org/1999/xlink" width="204.296875" height="200"><defs><style type="text/css">@font-face { font-family: TrolaText; src: url("chrome-extension://hjpahjhcglfdopbholajmhpamgblhjhg/fonts/trola/2F02A7_0_0.eot") format("embedded-opentype"), url("chrome-extension://hjpahjhcglfdopbholajmhpamgblhjhg/fonts/trola/2F02A7_0_0.woff") format("woff"), url("chrome-extension://hjpahjhcglfdopbholajmhpamgblhjhg/fonts/trola/2F02A7_0_0.ttf") format("truetype"), url("chrome-extension://hjpahjhcglfdopbholajmhpamgblhjhg/fonts/trola/2F02A7_0_0.svg") format("svg"); font-weight: bold; font-style: italic; }
@font-face { font-family: TrolaText; src: url("chrome-extension://hjpahjhcglfdopbholajmhpamgblhjhg/fonts/trola/2F02A7_1_0.eot") format("embedded-opentype"), url("chrome-extension://hjpahjhcglfdopbholajmhpamgblhjhg/fonts/trola/2F02A7_1_0.woff") format("woff"), url("chrome-extension://hjpahjhcglfdopbholajmhpamgblhjhg/fonts/trola/2F02A7_1_0.ttf") format("truetype"), url("chrome-extension://hjpahjhcglfdopbholajmhpamgblhjhg/fonts/trola/2F02A7_1_0.svg") format("svg"); font-weight: bold; font-style: normal; }
@font-face { font-family: TrolaText; src: url("chrome-extension://hjpahjhcglfdopbholajmhpamgblhjhg/fonts/trola/2F02A7_2_0.eot") format("embedded-opentype"), url("chrome-extension://hjpahjhcglfdopbholajmhpamgblhjhg/fonts/trola/2F02A7_2_0.woff") format("woff"), url("chrome-extension://hjpahjhcglfdopbholajmhpamgblhjhg/fonts/trola/2F02A7_2_0.ttf") format("truetype"), url("chrome-extension://hjpahjhcglfdopbholajmhpamgblhjhg/fonts/trola/2F02A7_2_0.svg") format("svg"); font-weight: normal; font-style: italic; }
@font-face { font-family: TrolaText; src: url("chrome-extension://hjpahjhcglfdopbholajmhpamgblhjhg/fonts/trola/2F02A7_3_0.eot") format("embedded-opentype"), url("chrome-extension://hjpahjhcglfdopbholajmhpamgblhjhg/fonts/trola/2F02A7_3_0.woff") format("woff"), url("chrome-extension://hjpahjhcglfdopbholajmhpamgblhjhg/fonts/trola/2F02A7_3_0.ttf") format("truetype"), url("chrome-extension://hjpahjhcglfdopbholajmhpamgblhjhg/fonts/trola/2F02A7_3_0.svg") format("svg"); font-weight: normal; font-style: normal; }
@font-face { font-family: highlyfont; src: url("chrome-extension://hjpahjhcglfdopbholajmhpamgblhjhg/fonts/highlyfont.eot") format("embedded-opentype"), url("chrome-extension://hjpahjhcglfdopbholajmhpamgblhjhg/fonts/highlyfont.woff") format("woff"), url("chrome-extension://hjpahjhcglfdopbholajmhpamgblhjhg/fonts/highlyfont.ttf") format("truetype"), url("chrome-extension://hjpahjhcglfdopbholajmhpamgblhjhg/fonts/highlyfont.svg") format("svg"); font-weight: normal; font-style: normal; }
</style></defs><path d="M326.857143 799.428571l-28.571429 28.571429q-5.714286 5.714286-13.142857 5.714286t-13.142857-5.714286l-266.285714-266.285714q-5.714286-5.714286-5.714286-13.142857t5.714286-13.142857l266.285714-266.285714q5.714286-5.714286 13.142857-5.714286t13.142857 5.714286l28.571429 28.571429q5.714286 5.714286 5.714286 13.142857t-5.714286 13.142857l-224.571429 224.571429 224.571429 224.571429q5.714286 5.714286 5.714286 13.142857t-5.714286 13.142857zm337.714286-609.714286l-213.142857 737.714286q-2.285714 7.428571-8.857143 11.142857t-13.428571 1.428571l-35.428571-9.714286q-7.428571-2.285714-11.142857-8.857143t-1.428571-14l213.142857-737.714286q2.285714-7.428571 8.857143-11.142857t13.428571-1.428571l35.428571 9.714286q7.428571 2.285714 11.142857 8.857143t1.428571 14zm375.428571 372l-266.285714 266.285714q-5.714286 5.714286-13.142857 5.714286t-13.142857-5.714286l-28.571429-28.571429q-5.714286-5.714286-5.714286-13.142857t5.714286-13.142857l224.571429-224.571429-224.571429-224.571429q-5.714286-5.714286-5.714286-13.142857t5.714286-13.142857l28.571429-28.571429q5.714286-5.714286 13.142857-5.714286t13.142857 5.714286l266.285714 266.285714q5.714286 5.714286 5.714286 13.142857t-5.714286 13.142857z" p-id="4361" fill="#ffffff"></path></svg>