<?xml version="1.0" standalone="no"?><!DOCTYPE svg PUBLIC "-//W3C//DTD SVG 1.1//EN" "http://www.w3.org/Graphics/SVG/1.1/DTD/svg11.dtd"><svg t="1528014597809" class="icon" style="" viewBox="0 0 1585 1024" version="1.1" xmlns="http://www.w3.org/2000/svg" p-id="3581" xmlns:xlink="http://www.w3.org/1999/xlink" width="309.5703125" height="200"><defs><style type="text/css">@font-face { font-family: TrolaText; src: url("chrome-extension://hjpahjhcglfdopbholajmhpamgblhjhg/fonts/trola/2F02A7_0_0.eot") format("embedded-opentype"), url("chrome-extension://hjpahjhcglfdopbholajmhpamgblhjhg/fonts/trola/2F02A7_0_0.woff") format("woff"), url("chrome-extension://hjpahjhcglfdopbholajmhpamgblhjhg/fonts/trola/2F02A7_0_0.ttf") format("truetype"), url("chrome-extension://hjpahjhcglfdopbholajmhpamgblhjhg/fonts/trola/2F02A7_0_0.svg") format("svg"); font-weight: bold; font-style: italic; }
@font-face { font-family: TrolaText; src: url("chrome-extension://hjpahjhcglfdopbholajmhpamgblhjhg/fonts/trola/2F02A7_1_0.eot") format("embedded-opentype"), url("chrome-extension://hjpahjhcglfdopbholajmhpamgblhjhg/fonts/trola/2F02A7_1_0.woff") format("woff"), url("chrome-extension://hjpahjhcglfdopbholajmhpamgblhjhg/fonts/trola/2F02A7_1_0.ttf") format("truetype"), url("chrome-extension://hjpahjhcglfdopbholajmhpamgblhjhg/fonts/trola/2F02A7_1_0.svg") format("svg"); font-weight: bold; font-style: normal; }
@font-face { font-family: TrolaText; src: url("chrome-extension://hjpahjhcglfdopbholajmhpamgblhjhg/fonts/trola/2F02A7_2_0.eot") format("embedded-opentype"), url("chrome-extension://hjpahjhcglfdopbholajmhpamgblhjhg/fonts/trola/2F02A7_2_0.woff") format("woff"), url("chrome-extension://hjpahjhcglfdopbholajmhpamgblhjhg/fonts/trola/2F02A7_2_0.ttf") format("truetype"), url("chrome-extension://hjpahjhcglfdopbholajmhpamgblhjhg/fonts/trola/2F02A7_2_0.svg") format("svg"); font-weight: normal; font-style: italic; }
@font-face { font-family: TrolaText; src: url("chrome-extension://hjpahjhcglfdopbholajmhpamgblhjhg/fonts/trola/2F02A7_3_0.eot") format("embedded-opentype"), url("chrome-extension://hjpahjhcglfdopbholajmhpamgblhjhg/fonts/trola/2F02A7_3_0.woff") format("woff"), url("chrome-extension://hjpahjhcglfdopbholajmhpamgblhjhg/fonts/trola/2F02A7_3_0.ttf") format("truetype"), url("chrome-extension://hjpahjhcglfdopbholajmhpamgblhjhg/fonts/trola/2F02A7_3_0.svg") format("svg"); font-weight: normal; font-style: normal; }
@font-face { font-family: highlyfont; src: url("chrome-extension://hjpahjhcglfdopbholajmhpamgblhjhg/fonts/highlyfont.eot") format("embedded-opentype"), url("chrome-extension://hjpahjhcglfdopbholajmhpamgblhjhg/fonts/highlyfont.woff") format("woff"), url("chrome-extension://hjpahjhcglfdopbholajmhpamgblhjhg/fonts/highlyfont.ttf") format("truetype"), url("chrome-extension://hjpahjhcglfdopbholajmhpamgblhjhg/fonts/highlyfont.svg") format("svg"); font-weight: normal; font-style: normal; }
</style></defs><path d="M1569.84665 462.314174s35.177619 62.427887 0 124.822742c-43.963766 62.427887-131.891297 169.38106-202.213504 222.890677-79.141384 62.427887-246.177269 213.972407-597.854364 213.972407-351.710125 0-624.278866-303.122072-624.278866-303.122072L22.460827 596.022155s-43.930735-71.313126-8.786147-142.626251c17.572294-26.754809 43.930735-44.591348 87.927531-89.182695 35.144588-44.591348 167.035885-178.299329 254.963417-222.890677 17.572294-8.91827 149.463591-106.986204 325.318653-133.741012 175.822032-26.754809 421.999301 8.91827 694.568042 249.645485 193.427357 187.250629 193.427357 205.087168 193.427357 205.087169zM796.137223 881.307688c202.213504 0 360.463242-169.38106 360.463242-365.549959 0-196.135868-158.216707-365.549958-360.463242-365.549958-202.213504 0-360.463242 169.41409-360.463242 365.549958 0 196.168899 158.216707 365.549958 360.463242 365.549959zM561.520673 512.025268c0-26.8539 8.91827-53.67477 17.902601-80.52867 17.86957-26.82087 26.82087-53.64174 53.67477-71.54434 17.86957-26.8539 44.72347-35.805201 62.59304-44.72347C722.544984 306.244457 749.398885 297.326187 776.219754 297.326187c26.8539 0 53.67477 8.91827 80.528671 17.902601 26.82087 8.91827 53.67477 26.82087 71.54434 44.72347 17.9026 17.86957 35.805201 44.72347 44.72347 71.54434 8.9513 26.8539 17.9026 53.707801 17.9026 80.52867 0 26.8539-8.91827 53.67477-17.9026 80.528671-8.91827 26.82087-26.82087 53.67477-44.72347 71.54434-17.86957 17.9026-44.72347 35.805201-71.54434 44.72347-26.8539 8.9513-53.67477 17.9026-80.528671 17.9026-26.8539 0-53.67477-8.91827-80.52867-17.9026-26.82087-8.91827-53.67477-26.82087-71.54434-44.72347-17.9026-17.86957-35.805201-44.72347-44.72347-71.54434C570.438943 565.700039 561.520673 538.879169 561.520673 512.025268z" p-id="3582" fill="#ffffff"></path></svg>